<mxfile host="app.diagrams.net" modified="2024-06-19T11:47:17.680Z" agent="Mozilla/5.0 (Macintosh; Intel Mac OS X 10_15_7) AppleWebKit/537.36 (KHTML, like Gecko) Chrome/116.0.0.0 Safari/537.36" etag="TJXVsMM0ZYSODfW0bUhR" version="24.5.4" type="device">
  <diagram id="Rj8qp3uqT3ajtmm9WSpq" name="Page-1">
    <mxGraphModel dx="2385" dy="2822" grid="1" gridSize="10" guides="1" tooltips="1" connect="1" arrows="1" fold="1" page="1" pageScale="1" pageWidth="850" pageHeight="1100" math="0" shadow="0">
      <root>
        <mxCell id="0" />
        <mxCell id="1" parent="0" />
        <mxCell id="YiW-QDjsgRmivzlMK6RQ-1" value="" style="rounded=1;whiteSpace=wrap;html=1;fontSize=17;movable=0;resizable=0;rotatable=0;deletable=0;editable=0;locked=1;connectable=0;" parent="1" vertex="1">
          <mxGeometry x="-200" y="-240" width="900" height="500" as="geometry" />
        </mxCell>
        <mxCell id="YiW-QDjsgRmivzlMK6RQ-2" value="" style="rounded=1;whiteSpace=wrap;html=1;fontSize=17;movable=0;resizable=0;rotatable=0;deletable=0;editable=0;locked=1;connectable=0;" parent="1" vertex="1">
          <mxGeometry x="-200" y="340" width="890" height="490" as="geometry" />
        </mxCell>
        <mxCell id="YiW-QDjsgRmivzlMK6RQ-3" value="" style="rounded=1;whiteSpace=wrap;html=1;fontSize=17;movable=0;resizable=0;rotatable=0;deletable=0;editable=0;locked=1;connectable=0;" parent="1" vertex="1">
          <mxGeometry x="-200" y="900" width="880" height="540" as="geometry" />
        </mxCell>
        <mxCell id="YiW-QDjsgRmivzlMK6RQ-12" value="&lt;font style=&quot;font-size: 17px;&quot;&gt;&lt;b style=&quot;font-size: 17px;&quot;&gt;DATA&lt;/b&gt;&lt;/font&gt;" style="text;html=1;align=center;verticalAlign=middle;whiteSpace=wrap;rounded=0;fontSize=17;" parent="1" vertex="1">
          <mxGeometry x="-150" y="-240" width="60" height="30" as="geometry" />
        </mxCell>
        <mxCell id="YiW-QDjsgRmivzlMK6RQ-13" value="&lt;font style=&quot;font-size: 17px;&quot;&gt;&lt;b style=&quot;font-size: 17px;&quot;&gt;DOMAIN&lt;/b&gt;&lt;/font&gt;" style="text;html=1;align=center;verticalAlign=middle;whiteSpace=wrap;rounded=0;fontSize=17;" parent="1" vertex="1">
          <mxGeometry x="-140" y="340" width="60" height="30" as="geometry" />
        </mxCell>
        <mxCell id="YiW-QDjsgRmivzlMK6RQ-14" value="&lt;font style=&quot;font-size: 17px;&quot;&gt;&lt;b style=&quot;font-size: 17px;&quot;&gt;APP&lt;/b&gt;&lt;/font&gt;" style="text;html=1;align=center;verticalAlign=middle;whiteSpace=wrap;rounded=0;fontSize=17;" parent="1" vertex="1">
          <mxGeometry x="-150" y="900" width="60" height="30" as="geometry" />
        </mxCell>
        <mxCell id="YiW-QDjsgRmivzlMK6RQ-27" style="edgeStyle=orthogonalEdgeStyle;rounded=0;orthogonalLoop=1;jettySize=auto;html=1;fontSize=17;" parent="1" source="YiW-QDjsgRmivzlMK6RQ-15" target="YiW-QDjsgRmivzlMK6RQ-17" edge="1">
          <mxGeometry relative="1" as="geometry">
            <Array as="points">
              <mxPoint x="100" y="1180" />
              <mxPoint x="100" y="1180" />
            </Array>
          </mxGeometry>
        </mxCell>
        <mxCell id="YiW-QDjsgRmivzlMK6RQ-37" style="edgeStyle=orthogonalEdgeStyle;rounded=0;orthogonalLoop=1;jettySize=auto;html=1;entryX=0.5;entryY=1;entryDx=0;entryDy=0;" parent="1" source="YiW-QDjsgRmivzlMK6RQ-15" target="YiW-QDjsgRmivzlMK6RQ-28" edge="1">
          <mxGeometry relative="1" as="geometry">
            <Array as="points">
              <mxPoint x="-40" y="940" />
              <mxPoint x="-40" y="940" />
            </Array>
          </mxGeometry>
        </mxCell>
        <mxCell id="YiW-QDjsgRmivzlMK6RQ-38" style="edgeStyle=orthogonalEdgeStyle;rounded=0;orthogonalLoop=1;jettySize=auto;html=1;entryX=0.5;entryY=1;entryDx=0;entryDy=0;" parent="1" source="YiW-QDjsgRmivzlMK6RQ-15" target="YiW-QDjsgRmivzlMK6RQ-35" edge="1">
          <mxGeometry relative="1" as="geometry">
            <Array as="points">
              <mxPoint x="-10" y="810" />
              <mxPoint x="235" y="810" />
            </Array>
          </mxGeometry>
        </mxCell>
        <mxCell id="YiW-QDjsgRmivzlMK6RQ-40" style="edgeStyle=orthogonalEdgeStyle;rounded=0;orthogonalLoop=1;jettySize=auto;html=1;" parent="1" source="YiW-QDjsgRmivzlMK6RQ-15" edge="1">
          <mxGeometry relative="1" as="geometry">
            <mxPoint x="520" y="770" as="targetPoint" />
            <Array as="points">
              <mxPoint x="20" y="870" />
              <mxPoint x="521" y="870" />
              <mxPoint x="521" y="770" />
            </Array>
          </mxGeometry>
        </mxCell>
        <mxCell id="YiW-QDjsgRmivzlMK6RQ-15" value="" style="rounded=1;whiteSpace=wrap;html=1;fontSize=17;" parent="1" vertex="1">
          <mxGeometry x="-130" y="1000" width="200" height="250" as="geometry" />
        </mxCell>
        <mxCell id="YiW-QDjsgRmivzlMK6RQ-16" value="&lt;font style=&quot;font-size: 17px;&quot;&gt;&lt;b style=&quot;font-size: 17px;&quot;&gt;ViewModel&lt;/b&gt;&lt;/font&gt;" style="text;html=1;align=center;verticalAlign=middle;whiteSpace=wrap;rounded=0;fontSize=17;" parent="1" vertex="1">
          <mxGeometry x="-60" y="1010" width="60" height="30" as="geometry" />
        </mxCell>
        <mxCell id="YiW-QDjsgRmivzlMK6RQ-26" style="edgeStyle=orthogonalEdgeStyle;rounded=0;orthogonalLoop=1;jettySize=auto;html=1;fontSize=17;" parent="1" source="YiW-QDjsgRmivzlMK6RQ-17" target="YiW-QDjsgRmivzlMK6RQ-15" edge="1">
          <mxGeometry relative="1" as="geometry">
            <Array as="points">
              <mxPoint x="110" y="1090" />
              <mxPoint x="110" y="1090" />
            </Array>
          </mxGeometry>
        </mxCell>
        <mxCell id="YiW-QDjsgRmivzlMK6RQ-17" value="" style="rounded=1;whiteSpace=wrap;html=1;fontSize=17;" parent="1" vertex="1">
          <mxGeometry x="150" y="1000" width="310" height="250" as="geometry" />
        </mxCell>
        <mxCell id="YiW-QDjsgRmivzlMK6RQ-18" value="&lt;span style=&quot;font-size: 17px;&quot;&gt;&lt;b style=&quot;font-size: 17px;&quot;&gt;Presentation&lt;/b&gt;&lt;/span&gt;" style="text;html=1;align=center;verticalAlign=middle;whiteSpace=wrap;rounded=0;fontSize=17;" parent="1" vertex="1">
          <mxGeometry x="270" y="1010" width="60" height="30" as="geometry" />
        </mxCell>
        <mxCell id="YiW-QDjsgRmivzlMK6RQ-33" style="edgeStyle=orthogonalEdgeStyle;rounded=0;orthogonalLoop=1;jettySize=auto;html=1;" parent="1" source="YiW-QDjsgRmivzlMK6RQ-19" target="YiW-QDjsgRmivzlMK6RQ-23" edge="1">
          <mxGeometry relative="1" as="geometry">
            <mxPoint x="35" y="89.99999999999977" as="targetPoint" />
            <Array as="points">
              <mxPoint x="35" y="70" />
              <mxPoint x="180" y="70" />
            </Array>
          </mxGeometry>
        </mxCell>
        <mxCell id="YiW-QDjsgRmivzlMK6RQ-19" value="ProductsEntity - model&lt;div&gt;ProductEntity - model&lt;br&gt;&lt;/div&gt;&lt;div&gt;ProductDao - Interface&lt;/div&gt;" style="rounded=1;whiteSpace=wrap;html=1;fontSize=17;" parent="1" vertex="1">
          <mxGeometry x="-160" y="-190" width="390" height="230" as="geometry" />
        </mxCell>
        <mxCell id="YiW-QDjsgRmivzlMK6RQ-44" style="edgeStyle=orthogonalEdgeStyle;rounded=0;orthogonalLoop=1;jettySize=auto;html=1;entryX=1;entryY=0.5;entryDx=0;entryDy=0;" parent="1" source="YiW-QDjsgRmivzlMK6RQ-21" target="YiW-QDjsgRmivzlMK6RQ-23" edge="1">
          <mxGeometry relative="1" as="geometry">
            <Array as="points">
              <mxPoint x="290" y="70" />
              <mxPoint x="240" y="70" />
              <mxPoint x="240" y="160" />
            </Array>
          </mxGeometry>
        </mxCell>
        <mxCell id="YiW-QDjsgRmivzlMK6RQ-21" value="ProductsDto - model&lt;div&gt;ProductDto - model&lt;br&gt;&lt;/div&gt;&lt;div&gt;ProductsApiDto - Interface&lt;/div&gt;" style="rounded=1;whiteSpace=wrap;html=1;fontSize=17;" parent="1" vertex="1">
          <mxGeometry x="250" y="-190" width="420" height="230" as="geometry" />
        </mxCell>
        <mxCell id="YiW-QDjsgRmivzlMK6RQ-22" value="&lt;font style=&quot;font-size: 17px;&quot;&gt;&lt;b style=&quot;font-size: 17px;&quot;&gt;network&lt;/b&gt;&lt;/font&gt;" style="text;html=1;align=center;verticalAlign=middle;whiteSpace=wrap;rounded=0;fontSize=17;" parent="1" vertex="1">
          <mxGeometry x="280" y="-190" width="60" height="30" as="geometry" />
        </mxCell>
        <mxCell id="YiW-QDjsgRmivzlMK6RQ-23" value="DataRepositoryImpl - Implementation" style="rounded=1;whiteSpace=wrap;html=1;fontSize=17;" parent="1" vertex="1">
          <mxGeometry x="-160" y="100" width="380" height="120" as="geometry" />
        </mxCell>
        <mxCell id="YiW-QDjsgRmivzlMK6RQ-25" value="DataRepository - Interface&lt;div&gt;&lt;br&gt;fun getDataFromApi&lt;div&gt;fun saveDataToDataBase&lt;/div&gt;&lt;div&gt;fun loadDataFromDataBase&lt;/div&gt;&lt;/div&gt;" style="rounded=1;whiteSpace=wrap;html=1;fontSize=17;" parent="1" vertex="1">
          <mxGeometry x="-40" y="370" width="380" height="270" as="geometry" />
        </mxCell>
        <mxCell id="YiW-QDjsgRmivzlMK6RQ-31" style="edgeStyle=orthogonalEdgeStyle;rounded=0;orthogonalLoop=1;jettySize=auto;html=1;" parent="1" source="YiW-QDjsgRmivzlMK6RQ-28" target="YiW-QDjsgRmivzlMK6RQ-25" edge="1">
          <mxGeometry relative="1" as="geometry">
            <Array as="points">
              <mxPoint x="-30" y="615" />
              <mxPoint x="10" y="615" />
            </Array>
          </mxGeometry>
        </mxCell>
        <mxCell id="YiW-QDjsgRmivzlMK6RQ-28" value="GetDataFromApiUseCase" style="ellipse;whiteSpace=wrap;html=1;fontSize=17;" parent="1" vertex="1">
          <mxGeometry x="-170" y="690" width="260" height="80" as="geometry" />
        </mxCell>
        <mxCell id="YiW-QDjsgRmivzlMK6RQ-29" value="Data - Model" style="rounded=1;whiteSpace=wrap;html=1;fontSize=17;" parent="1" vertex="1">
          <mxGeometry x="440" y="380" width="200" height="70" as="geometry" />
        </mxCell>
        <mxCell id="YiW-QDjsgRmivzlMK6RQ-32" value="" style="endArrow=none;dashed=1;html=1;dashPattern=1 3;strokeWidth=2;rounded=0;" parent="1" source="YiW-QDjsgRmivzlMK6RQ-25" target="YiW-QDjsgRmivzlMK6RQ-23" edge="1">
          <mxGeometry width="50" height="50" relative="1" as="geometry">
            <mxPoint x="-20" y="310" as="sourcePoint" />
            <mxPoint x="30" y="260" as="targetPoint" />
          </mxGeometry>
        </mxCell>
        <mxCell id="YiW-QDjsgRmivzlMK6RQ-20" value="&lt;b&gt;storage&lt;/b&gt;" style="text;html=1;align=center;verticalAlign=middle;whiteSpace=wrap;rounded=0;fontSize=17;" parent="1" vertex="1">
          <mxGeometry x="-130" y="-190" width="60" height="30" as="geometry" />
        </mxCell>
        <mxCell id="YiW-QDjsgRmivzlMK6RQ-36" style="edgeStyle=orthogonalEdgeStyle;rounded=0;orthogonalLoop=1;jettySize=auto;html=1;" parent="1" source="YiW-QDjsgRmivzlMK6RQ-35" target="YiW-QDjsgRmivzlMK6RQ-25" edge="1">
          <mxGeometry relative="1" as="geometry" />
        </mxCell>
        <mxCell id="YiW-QDjsgRmivzlMK6RQ-35" value="SaveDataToDataBaseUseCase" style="ellipse;whiteSpace=wrap;html=1;fontSize=17;" parent="1" vertex="1">
          <mxGeometry x="105" y="690" width="260" height="80" as="geometry" />
        </mxCell>
        <mxCell id="YiW-QDjsgRmivzlMK6RQ-42" style="edgeStyle=orthogonalEdgeStyle;rounded=0;orthogonalLoop=1;jettySize=auto;html=1;entryX=1;entryY=0.5;entryDx=0;entryDy=0;" parent="1" source="YiW-QDjsgRmivzlMK6RQ-39" target="YiW-QDjsgRmivzlMK6RQ-25" edge="1">
          <mxGeometry relative="1" as="geometry">
            <Array as="points">
              <mxPoint x="510" y="505" />
            </Array>
          </mxGeometry>
        </mxCell>
        <mxCell id="YiW-QDjsgRmivzlMK6RQ-39" value="LoadDataFromDataBaseUseCase" style="ellipse;whiteSpace=wrap;html=1;fontSize=17;" parent="1" vertex="1">
          <mxGeometry x="390" y="690" width="260" height="80" as="geometry" />
        </mxCell>
        <mxCell id="YiW-QDjsgRmivzlMK6RQ-43" value="mappers" style="rounded=1;whiteSpace=wrap;html=1;fontSize=17;" parent="1" vertex="1">
          <mxGeometry x="470" y="60" width="200" height="60" as="geometry" />
        </mxCell>
        <mxCell id="YiW-QDjsgRmivzlMK6RQ-46" style="edgeStyle=orthogonalEdgeStyle;rounded=0;orthogonalLoop=1;jettySize=auto;html=1;" parent="1" source="YiW-QDjsgRmivzlMK6RQ-45" edge="1">
          <mxGeometry relative="1" as="geometry">
            <mxPoint x="-199.99999999999977" y="10" as="targetPoint" />
            <Array as="points">
              <mxPoint x="-560" y="10" />
            </Array>
          </mxGeometry>
        </mxCell>
        <mxCell id="YiW-QDjsgRmivzlMK6RQ-48" style="edgeStyle=orthogonalEdgeStyle;rounded=0;orthogonalLoop=1;jettySize=auto;html=1;" parent="1" source="YiW-QDjsgRmivzlMK6RQ-45" edge="1">
          <mxGeometry relative="1" as="geometry">
            <mxPoint x="-199.99999999999977" y="575" as="targetPoint" />
            <Array as="points">
              <mxPoint x="-430" y="1345" />
              <mxPoint x="-430" y="575" />
            </Array>
          </mxGeometry>
        </mxCell>
        <mxCell id="YiW-QDjsgRmivzlMK6RQ-45" value="&lt;b&gt;DI&lt;/b&gt;" style="rounded=1;whiteSpace=wrap;html=1;fontSize=17;" parent="1" vertex="1">
          <mxGeometry x="-140" y="1300" width="300" height="90" as="geometry" />
        </mxCell>
      </root>
    </mxGraphModel>
  </diagram>
</mxfile>
